<svg width="19" height="18" viewBox="0 0 19 18" fill="none" xmlns="http://www.w3.org/2000/svg">
<path fill-rule="evenodd" clip-rule="evenodd" d="M11.6899 12.6081C10.5217 13.4823 9.07129 14 7.5 14C3.63401 14 0.5 10.866 0.5 7C0.5 3.13401 3.63401 0 7.5 0C11.366 0 14.5 3.13401 14.5 7C14.5 8.57338 13.9809 10.0255 13.1046 11.1945L18.4969 16.5868L17.0827 18.001L11.6899 12.6081ZM12.5 7C12.5 9.76142 10.2614 12 7.5 12C4.73858 12 2.5 9.76142 2.5 7C2.5 4.23858 4.73858 2 7.5 2C10.2614 2 12.5 4.23858 12.5 7Z" fill="white"/>
</svg>
